<svg width="93" height="92" viewBox="0 0 93 92" fill="none" xmlns="http://www.w3.org/2000/svg">
<mask id="mask0_10_19" style="mask-type:alpha" maskUnits="userSpaceOnUse" x="0" y="0" width="93" height="92">
<rect width="93" height="92" fill="#D9D9D9"/>
</mask>
<g mask="url(#mask0_10_19)">
<path d="M36.8125 15.3333H34.7781C34.1323 15.3333 33.5188 15.3972 32.9375 15.525C36.6187 19.7417 39.4772 24.4528 41.5129 29.6585C43.546 34.8667 44.5625 40.3139 44.5625 46C44.5625 51.6861 43.546 57.132 41.5129 62.3377C39.4772 67.5459 36.6187 72.2583 32.9375 76.475C33.5188 76.6028 34.1323 76.6667 34.7781 76.6667H36.8125C45.4021 76.6667 52.7168 73.6805 58.7566 67.7082C64.7939 61.7333 67.8125 54.4972 67.8125 46C67.8125 37.5028 64.7939 30.2667 58.7566 24.2918C52.7168 18.3195 45.4021 15.3333 36.8125 15.3333ZM36.8125 7.66666C42.1729 7.66666 47.2104 8.67227 51.925 10.6835C56.6396 12.6973 60.7406 15.4292 64.2281 18.8792C67.7156 22.3292 70.4759 26.3861 72.509 31.05C74.5447 35.7139 75.5625 40.6972 75.5625 46C75.5625 51.3028 74.5447 56.2861 72.509 60.95C70.4759 65.6139 67.7156 69.6708 64.2281 73.1208C60.7406 76.5708 56.6396 79.3014 51.925 81.3127C47.2104 83.3264 42.1729 84.3333 36.8125 84.3333C33.3896 84.3333 30.048 83.9027 26.7879 83.0415C23.5251 82.1777 20.4083 80.8833 17.4375 79.1583C23.4437 75.7083 28.1738 71.0444 31.6277 65.1667C35.0842 59.2889 36.8125 52.9 36.8125 46C36.8125 39.1 35.0842 32.7111 31.6277 26.8333C28.1738 20.9555 23.4437 16.2917 17.4375 12.8417C20.4083 11.1167 23.5251 9.82227 26.7879 8.95849C30.048 8.09727 33.3896 7.66666 36.8125 7.66666Z" fill="#1C1B1F"/>
</g>
</svg>
