<svg width="51" height="51" viewBox="0 0 51 51" fill="none" xmlns="http://www.w3.org/2000/svg">
<mask id="mask0_10_43" style="mask-type:alpha" maskUnits="userSpaceOnUse" x="0" y="0" width="51" height="51">
<rect x="0.0986328" y="0.817284" width="50" height="50" fill="#D9D9D9"/>
</mask>
<g mask="url(#mask0_10_43)">
<path d="M23.0153 11.2339V2.90062H27.1819V11.2339H23.0153ZM36.8694 16.9631L34.0049 14.0985L39.8382 8.10895L42.7549 11.0777L36.8694 16.9631ZM39.6819 27.9006V23.7339H48.0153V27.9006H39.6819ZM23.0153 48.7339V40.4006H27.1819V48.7339H23.0153ZM13.3278 16.8589L7.39028 11.0777L10.359 8.16103L16.2444 14.0464L13.3278 16.8589ZM39.7861 43.5256L34.0049 37.536L36.8174 34.7235L42.7549 40.4527L39.7861 43.5256ZM2.18195 27.9006V23.7339H10.5153V27.9006H2.18195ZM10.359 43.5256L7.44236 40.5569L13.2757 34.7235L14.7861 36.1298L16.2965 37.5881L10.359 43.5256ZM25.0986 38.3173C21.6264 38.3173 18.675 37.102 16.2444 34.6714C13.8139 32.2409 12.5986 29.2895 12.5986 25.8173C12.5986 22.3451 13.8139 19.3937 16.2444 16.9631C18.675 14.5326 21.6264 13.3173 25.0986 13.3173C28.5708 13.3173 31.5222 14.5326 33.9528 16.9631C36.3833 19.3937 37.5986 22.3451 37.5986 25.8173C37.5986 29.2895 36.3833 32.2409 33.9528 34.6714C31.5222 37.102 28.5708 38.3173 25.0986 38.3173ZM25.0986 34.1506C27.3903 34.1506 29.3521 33.3346 30.984 31.7027C32.616 30.0708 33.4319 28.1089 33.4319 25.8173C33.4319 23.5256 32.616 21.5638 30.984 19.9319C29.3521 18.2999 27.3903 17.4839 25.0986 17.4839C22.8069 17.4839 20.8451 18.2999 19.2132 19.9319C17.5813 21.5638 16.7653 23.5256 16.7653 25.8173C16.7653 28.1089 17.5813 30.0708 19.2132 31.7027C20.8451 33.3346 22.8069 34.1506 25.0986 34.1506Z" fill="white"/>
</g>
</svg>
